<?xml version="1.0" encoding="UTF-8" standalone="no"?>
<svg
   xmlns:dc="http://purl.org/dc/elements/1.1/"
   xmlns:cc="http://creativecommons.org/ns#"
   xmlns:rdf="http://www.w3.org/1999/02/22-rdf-syntax-ns#"
   xmlns:svg="http://www.w3.org/2000/svg"
   xmlns="http://www.w3.org/2000/svg"
   viewBox="0 0 548.5733 99.013336"
   height="99.013336"
   width="548.5733"
   xml:space="preserve"
   id="svg2"
   version="1.1"><metadata
     id="metadata8"><rdf:RDF><cc:Work
         rdf:about=""><dc:format>image/svg+xml</dc:format><dc:type
           rdf:resource="http://purl.org/dc/dcmitype/StillImage" /></cc:Work></rdf:RDF></metadata><defs
     id="defs6" /><g
     transform="matrix(1.3333333,0,0,-1.3333333,0,99.013333)"
     id="g10"><g
       transform="scale(0.1)"
       id="g12"><path
         id="path14"
         style="fill:#100f0d;fill-opacity:1;fill-rule:nonzero;stroke:none"
         d="m 258.57,560.254 c 46.18,0 88.5,-16.699 121.403,-44.293 l 44.718,53.301 C 379.73,607.055 321.793,629.871 258.59,629.871 116,629.871 0,513.871 0,371.293 0,228.691 116,112.695 258.598,112.734 c 63.203,0 121.144,22.813 166.105,60.606 l -44.723,53.301 c -32.863,-27.61 -75.21,-44.289 -121.39,-44.289 -104.192,0 -188.9611,84.757 -188.9611,188.941 -0.0117,104.18 84.7691,188.98 188.9691,188.961 h -0.028" /><path
         id="path16"
         style="fill:#100f0d;fill-opacity:1;fill-rule:nonzero;stroke:none"
         d="M 1689.93,197.246 H 1585.51 V 545.32 h 104.42 c 95.97,0 174,-78.097 174,-174.035 0.04,-96.012 -78.03,-174.019 -174.03,-174.039 z m 0,417.695 H 1550.7 c -19.22,0 -34.8,-15.589 -34.8,-34.8 V 162.449 c 0,-19.195 15.6,-34.793 34.8,-34.793 h 139.23 c 134.36,0 243.65,109.297 243.65,243.649 0,134.371 -109.28,243.672 -243.68,243.636 h 0.03" /><path
         id="path18"
         style="fill:#100f0d;fill-opacity:1;fill-rule:nonzero;stroke:none"
         d="M 2122.06,580.133 V 162.441 c 0,-19.199 15.6,-34.804 34.8,-34.804 h 290.07 v 69.609 h -255.25 v 139.246 h 162.43 v 69.61 H 2191.68 V 545.32 h 255.25 v 69.614 h -290.07 c -19.2,0.043 -34.76,-15.559 -34.76,-34.801 h -0.04" /><path
         id="path20"
         style="fill:#100f0d;fill-opacity:1;fill-rule:nonzero;stroke:none"
         d="M 3175.69,580.133 V 162.441 c 0,-19.199 15.6,-34.804 34.8,-34.804 h 290.06 v 69.609 H 3245.3 v 139.246 h 162.44 v 69.61 H 3245.3 V 545.32 h 255.25 v 69.614 H 3210.5 c -19.22,0.043 -34.8,-15.559 -34.8,-34.801 h -0.01" /><path
         id="path22"
         style="fill:#100f0d;fill-opacity:1;fill-rule:nonzero;stroke:none"
         d="M 2844.43,406.102 H 2728.4 V 545.32 h 116.03 c 38.39,0 69.59,-31.195 69.59,-69.605 0,-38.41 -31.2,-69.641 -69.63,-69.613 z m 0,208.839 h -150.84 c -19.21,0 -34.8,-15.589 -34.8,-34.8 V 127.637 h 69.62 v 208.855 h 116.02 c 76.78,0 139.24,62.461 139.24,139.223 -0.01,76.762 -62.47,139.262 -139.28,139.226 h 0.04" /><path
         id="path24"
         style="fill:#100f0d;fill-opacity:1;fill-rule:nonzero;stroke:none"
         d="M 4044.76,614.941 V 258.586 l -286.52,343.836 c -9.38,11.269 -24.81,15.449 -38.59,10.449 -13.78,-5 -22.96,-18.074 -22.96,-32.73 V 127.637 h 69.62 v 356.355 l 286.52,-343.836 c 6.75,-8.086 16.6,-12.5 26.7,-12.5 3.96,0 7.97,0.664 11.85,2.071 13.78,5 22.96,18.086 22.96,32.734 v 452.504 h -69.58 v -0.024" /><path
         id="path26"
         style="fill:#100f0d;fill-opacity:1;fill-rule:nonzero;stroke:none"
         d="m 1117.66,409.672 -138.34,92.519 v 148.852 l 250.02,-166.668 z m 57.39,-38.399 79.83,53.399 V 317.891 l -79.83,53.402 z M 979.32,240.371 1117.66,332.891 1229.34,258.203 979.32,91.5313 Z m -202.152,92.5 138.34,-92.519 V 91.5156 L 665.496,258.203 777.168,332.891 Z m -57.387,38.422 -79.82,-53.383 v 106.774 z m 195.727,130.91 -138.34,-92.531 -111.672,74.703 250.012,166.668 z m 31.902,-206.402 -112.847,75.484 112.847,75.488 112.86,-75.488 z m 370.74,194.164 c -0.17,0.898 -0.32,1.797 -0.56,2.676 -0.15,0.535 -0.33,1.031 -0.5,1.554 -0.25,0.782 -0.51,1.559 -0.82,2.321 -0.22,0.531 -0.47,1.039 -0.71,1.547 -0.34,0.722 -0.69,1.429 -1.09,2.117 -0.28,0.511 -0.6,0.992 -0.91,1.484 -0.43,0.66 -0.87,1.309 -1.35,1.938 -0.35,0.468 -0.71,0.918 -1.09,1.375 -0.5,0.593 -1.04,1.164 -1.58,1.726 -0.42,0.422 -0.84,0.84 -1.28,1.25 -0.58,0.527 -1.18,1.031 -1.81,1.512 -0.48,0.371 -0.95,0.75 -1.45,1.086 -0.18,0.133 -0.34,0.285 -0.53,0.402 L 965.113,737.211 c -10.715,7.152 -24.683,7.152 -35.39,0 L 590.344,510.961 c -0.192,-0.117 -0.344,-0.27 -0.535,-0.398 -0.496,-0.348 -0.969,-0.719 -1.45,-1.09 -0.621,-0.489 -1.23,-0.993 -1.812,-1.5 -0.438,-0.399 -0.859,-0.821 -1.27,-1.25 -0.554,-0.563 -1.078,-1.133 -1.586,-1.727 -0.378,-0.449 -0.742,-0.902 -1.093,-1.402 -0.481,-0.629 -0.918,-1.27 -1.348,-1.938 -0.309,-0.496 -0.621,-0.972 -0.906,-1.484 -0.403,-0.692 -0.754,-1.399 -1.086,-2.102 -0.238,-0.507 -0.496,-1.023 -0.707,-1.547 -0.309,-0.761 -0.582,-1.539 -0.832,-2.32 -0.168,-0.519 -0.352,-1.027 -0.489,-1.5 -0.226,-0.883 -0.398,-1.769 -0.558,-2.68 -0.09,-0.457 -0.203,-0.914 -0.262,-1.382 -0.18,-1.379 -0.281,-2.758 -0.281,-4.168 V 258.176 c 0,-1.399 0.101,-2.805 0.301,-4.172 0.07,-0.508 0.203,-0.899 0.3,-1.387 0.161,-0.898 0.301,-1.797 0.598,-2.695 0.145,-0.496 0.305,-0.996 0.504,-1.543 0.25,-0.801 0.496,-1.602 0.797,-2.332 0.211,-0.5 0.504,-1.008 0.703,-1.496 0.324,-0.703 0.695,-1.406 1.098,-2.141 0.277,-0.496 0.601,-1.004 0.898,-1.453 0.43,-0.703 0.902,-1.309 1.402,-1.902 0.352,-0.5 0.7,-0.903 1.098,-1.379 0.512,-0.606 1,-1.203 1.602,-1.738 0.41,-0.391 0.8,-0.899 1.3,-1.192 0.579,-0.508 1.2,-0.996 1.801,-1.523 0.477,-0.403 1,-0.703 1.403,-1.094 0.187,-0.098 0.296,-0.293 0.496,-0.391 L 929.723,5.37109 c 5.355,-3.59375 11.5,-5.3906213 17.699,-5.37109 6.195,0.0390625 12.34,1.79688 17.699,5.37109 L 1304.5,231.621 c 0.19,0.117 0.35,0.266 0.53,0.391 0.5,0.351 0.97,0.722 1.45,1.093 0.62,0.489 1.23,0.997 1.81,1.524 0.44,0.391 0.86,0.82 1.28,1.23 0.55,0.567 1.08,1.133 1.58,1.739 0.38,0.449 0.74,0.898 1.09,1.375 0.48,0.636 0.92,1.281 1.35,1.945 0.31,0.469 0.62,0.969 0.91,1.453 0.4,0.695 0.75,1.418 1.09,2.133 0.24,0.516 0.49,1.023 0.71,1.543 0.31,0.769 0.57,1.551 0.82,2.332 0.17,0.508 0.35,1.023 0.5,1.543 0.23,0.879 0.39,1.777 0.56,2.676 0.08,0.468 0.2,0.918 0.25,1.386 0.18,1.375 0.28,2.754 0.28,4.168 v 226.262 c 0,1.41 -0.11,2.789 -0.28,4.172 -0.08,0.484 -0.23,0.887 -0.33,1.379 h 0.05" /></g></g></svg>