<?xml version="1.0" encoding="UTF-8" standalone="no"?>
<svg
   xmlns:dc="http://purl.org/dc/elements/1.1/"
   xmlns:cc="http://creativecommons.org/ns#"
   xmlns:rdf="http://www.w3.org/1999/02/22-rdf-syntax-ns#"
   xmlns:svg="http://www.w3.org/2000/svg"
   xmlns="http://www.w3.org/2000/svg"
   viewBox="0 0 537.53333 194.30667"
   height="194.30667"
   width="537.53333"
   xml:space="preserve"
   id="svg2"
   version="1.1"><metadata
     id="metadata8"><rdf:RDF><cc:Work
         rdf:about=""><dc:format>image/svg+xml</dc:format><dc:type
           rdf:resource="http://purl.org/dc/dcmitype/StillImage" /></cc:Work></rdf:RDF></metadata><defs
     id="defs6" /><g
     transform="matrix(1.3333333,0,0,-1.3333333,0,194.30667)"
     id="g10"><g
       transform="scale(0.1)"
       id="g12"><path
         id="path14"
         style="fill:#100f0d;fill-opacity:1;fill-rule:nonzero;stroke:none"
         d="m 1237.68,591.715 c 0,33.769 19.8,54.726 51.27,54.726 31.46,0 51.28,-20.957 51.28,-54.726 v -52.461 h 2.33 c 23.3,47.793 80.41,107.187 139.84,107.187 36.14,0 57.11,-23.281 57.11,-52.402 0,-29.16 -20.97,-47.793 -64.1,-55.937 -60.59,-10.489 -135.18,-55.957 -135.18,-175.981 V 67.2813 c 0,-33.8125 -19.82,-54.7813 -51.28,-54.7813 -31.47,0 -51.27,20.9688 -51.27,54.7813 V 591.715" /><path
         id="path16"
         style="fill:#100f0d;fill-opacity:1;fill-rule:nonzero;stroke:none"
         d="m 1288.95,633.941 c -24.63,0 -38.77,-15.39 -38.77,-42.226 V 67.2813 C 1250.18,40.3906 1264.32,25 1288.95,25 c 24.64,0 38.78,15.3906 38.78,42.2813 V 362.121 c 0,151.313 111.41,182.367 145.55,188.285 48.15,9.102 53.73,29.278 53.73,43.633 0,24.238 -17.52,39.902 -44.61,39.902 -55.02,0 -108.32,-58.593 -128.61,-100.156 l -3.42,-7.031 h -20.31 l -2.33,12.5 v 52.461 c 0,26.836 -14.14,42.226 -38.78,42.226 z M 1288.95,0 c -38.74,0 -63.77,26.3984 -63.77,67.2813 V 591.715 c 0,40.84 25.03,67.226 63.77,67.226 38.75,0 63.78,-26.386 63.78,-67.226 v -12.11 c 31.76,42.676 80.77,79.336 129.67,79.336 40.98,0 69.61,-26.679 69.61,-64.902 0,-24.707 -12.89,-56.621 -74.28,-68.223 -37.71,-6.543 -125,-35.488 -125,-163.695 V 67.2813 C 1352.73,26.3984 1327.7,0 1288.95,0" /><path
         id="path18"
         style="fill:#100f0d;fill-opacity:1;fill-rule:nonzero;stroke:none"
         d="m 2010.27,366.789 c 0,88.563 -51.31,191.117 -164.33,191.117 -127.03,4.668 -172.48,-96.738 -175.98,-191.117 z m -340.31,-76.93 c 0,-106.058 67.6,-188.789 182.95,-188.789 136.37,0 171.33,83.891 209.79,83.891 18.65,0 37.3,-16.313 37.3,-45.43 C 2100,89.3906 1972.97,12.5 1851.76,12.5 c -198.13,0 -284.36,152.648 -284.36,316.988 0,167.793 104.89,316.953 278.54,316.953 168.98,0 266.85,-152.656 266.85,-301.82 0,-36.109 -12.79,-54.762 -57.07,-54.762 h -385.76" /><path
         id="path20"
         style="fill:#100f0d;fill-opacity:1;fill-rule:nonzero;stroke:none"
         d="m 1683.26,379.289 h 314.12 c -4.41,71.039 -46.34,166.117 -151.44,166.117 -3.13,0.098 -5.76,0.137 -8.36,0.137 -125.8,0 -149.9,-114.371 -154.32,-166.254 z m 339.51,-25 h -365.8 l 0.51,12.973 c 3.71,100.508 55,207.754 188.93,203.144 115.62,0 176.36,-102.441 176.36,-203.617 z M 1845.94,633.941 C 1671.29,633.941 1579.9,480.777 1579.9,329.488 1579.9,182.301 1651.31,25 1851.76,25 c 116.91,0 235.74,73.4688 235.74,114.531 0,21.617 -12.5,32.93 -24.8,32.93 -9.05,0 -20.69,-9.109 -35.43,-20.633 -32.25,-25.187 -80.98,-63.2577 -174.36,-63.2577 -116.89,0 -195.45,80.8787 -195.45,201.2887 v 12.5 h 398.26 c 37.91,0 44.57,13.61 44.57,42.262 0,140.258 -89.14,289.32 -254.35,289.32 z M 1851.76,0 c -219.1,0 -296.86,177.48 -296.86,329.488 0,163.711 99.96,329.453 291.04,329.453 181.46,0 279.35,-161.953 279.35,-314.32 0,-46.5 -21.44,-67.262 -69.57,-67.262 h -372.93 c 5.22,-98.519 72.25,-163.789 170.12,-163.789 84.77,0 127.66,33.5 158.97,57.95 18.53,14.492 33.18,25.941 50.82,25.941 24.12,0 49.8,-20.32 49.8,-57.93 C 2112.5,75.6211 1971.15,0 1851.76,0" /><path
         id="path22"
         style="fill:#100f0d;fill-opacity:1;fill-rule:nonzero;stroke:none"
         d="m 2456.5,557.906 c -125.89,0 -170.17,-123.515 -170.17,-228.418 0,-104.886 44.28,-228.418 170.17,-228.418 125.84,0 170.14,123.532 170.14,228.418 0,104.903 -44.3,228.418 -170.14,228.418 z M 2616.15,97.5508 h -2.34 C 2584.67,41.6211 2529.9,12.5 2448.34,12.5 c -167.81,0 -264.55,152.648 -264.55,316.988 0,164.297 96.74,316.953 264.55,316.953 81.56,0 138.67,-45.429 165.47,-83.867 h 2.34 v 301.817 c 0,33.808 19.81,54.785 51.29,54.785 31.45,0 51.25,-20.977 51.25,-54.785 V 67.2813 c 0,-33.8125 -19.8,-54.7813 -51.25,-54.7813 -31.48,0 -51.29,20.9688 -51.29,54.7813 v 30.2695" /><path
         id="path24"
         style="fill:#100f0d;fill-opacity:1;fill-rule:nonzero;stroke:none"
         d="m 2456.5,545.406 c -116.36,0 -157.67,-116.304 -157.67,-215.918 0,-99.609 41.31,-215.918 157.67,-215.918 116.35,0 157.64,116.309 157.64,215.918 0,99.614 -41.29,215.918 -157.64,215.918 z m 0,-456.8357 c -134.82,0 -182.67,129.7817 -182.67,240.9177 0,111.133 47.85,240.918 182.67,240.918 134.81,0 182.64,-129.785 182.64,-240.918 0,-111.136 -47.83,-240.9177 -182.64,-240.9177 z m 149.75,21.4807 h 20.06 l 2.34,-12.5002 V 67.2813 C 2628.65,40.3906 2642.77,25 2667.44,25 c 24.63,0 38.75,15.3906 38.75,42.2813 V 864.391 c 0,26.894 -14.12,42.285 -38.75,42.285 -24.67,0 -38.79,-15.391 -38.79,-42.285 V 550.074 h -19.02 l -6.06,5.332 c -26.48,37.969 -81.17,78.535 -155.23,78.535 -165.47,0 -252.05,-153.164 -252.05,-304.453 C 2196.29,178.16 2282.87,25 2448.34,25 c 76.41,0 126.93,25.6211 154.39,78.34 z M 2667.44,0 c -36.52,0 -60.88,23.4492 -63.53,60.3906 C 2569.73,20.2695 2517.58,0 2448.34,0 c -181.88,0 -277.05,165.738 -277.05,329.488 0,163.711 95.17,329.453 277.05,329.453 67.87,0 121.45,-30.293 155.31,-64.765 v 270.215 c 0,40.879 25.04,67.285 63.79,67.285 38.71,0 63.75,-26.406 63.75,-67.285 V 67.2813 C 2731.19,26.3984 2706.15,0 2667.44,0" /><path
         id="path26"
         style="fill:#100f0d;fill-opacity:1;fill-rule:nonzero;stroke:none"
         d="m 3104.36,557.906 c -125.9,0 -170.18,-123.515 -170.18,-228.418 0,-104.886 44.28,-228.418 170.18,-228.418 125.85,0 170.13,123.532 170.13,228.418 0,104.903 -44.28,228.418 -170.13,228.418 z M 3264,97.5508 h -2.34 C 3232.54,41.6211 3177.75,12.5 3096.19,12.5 c -167.81,0 -264.55,152.648 -264.55,316.988 0,164.297 96.74,316.953 264.55,316.953 81.56,0 138.67,-45.429 165.47,-83.867 h 2.34 v 301.817 c 0,33.808 19.81,54.785 51.29,54.785 31.47,0 51.25,-20.977 51.25,-54.785 V 67.2813 C 3366.54,33.4688 3346.76,12.5 3315.29,12.5 3283.81,12.5 3264,33.4688 3264,67.2813 v 30.2695" /><path
         id="path28"
         style="fill:#100f0d;fill-opacity:1;fill-rule:nonzero;stroke:none"
         d="m 3104.36,545.406 c -116.37,0 -157.68,-116.304 -157.68,-215.918 0,-99.609 41.31,-215.918 157.68,-215.918 116.34,0 157.63,116.309 157.63,215.918 0,99.614 -41.29,215.918 -157.63,215.918 z m 0,-456.8357 c -134.83,0 -182.68,129.7817 -182.68,240.9177 0,111.133 47.85,240.918 182.68,240.918 134.8,0 182.63,-129.785 182.63,-240.918 0,-111.136 -47.83,-240.9177 -182.63,-240.9177 z m 149.74,21.4807 h 20.06 l 2.34,-12.5002 V 67.2813 C 3276.5,40.3906 3290.64,25 3315.29,25 c 24.63,0 38.75,15.3906 38.75,42.2813 V 864.391 c 0,26.894 -14.12,42.285 -38.75,42.285 -24.65,0 -38.79,-15.391 -38.79,-42.285 V 550.074 h -19 l -6.07,5.332 c -26.49,37.969 -81.18,78.535 -155.24,78.535 -165.47,0 -252.05,-153.164 -252.05,-304.453 C 2844.14,178.16 2930.72,25 3096.19,25 c 76.45,0 126.95,25.6211 154.4,78.34 z M 3315.29,0 c -36.52,0 -60.86,23.4492 -63.53,60.3906 C 3217.58,20.2695 3165.43,0 3096.19,0 c -181.87,0 -277.05,165.738 -277.05,329.488 0,163.711 95.18,329.453 277.05,329.453 67.87,0 121.45,-30.293 155.31,-64.765 v 270.215 c 0,40.879 25.06,67.285 63.79,67.285 38.71,0 63.75,-26.406 63.75,-67.285 V 67.2813 C 3379.04,26.3984 3354,0 3315.29,0" /><path
         id="path30"
         style="fill:#100f0d;fill-opacity:1;fill-rule:nonzero;stroke:none"
         d="m 3557.56,931.266 c -62.25,0 -112.93,-50.664 -112.93,-112.95 0,-62.246 50.68,-112.91 112.93,-112.91 62.28,0 112.95,50.664 112.95,112.91 0,62.286 -50.67,112.95 -112.95,112.95 z m 0,-50 c 34.96,0 62.95,-27.95 62.95,-62.95 0,-34.921 -27.99,-62.91 -62.95,-62.91 -34.96,0 -62.93,27.989 -62.93,62.91 0,35 27.97,62.95 62.93,62.95" /><path
         id="path32"
         style="fill:#100f0d;fill-opacity:1;fill-rule:nonzero;stroke:none"
         d="m 3608.87,67.2813 c 0,-33.8125 -19.83,-54.7813 -51.31,-54.7813 -31.47,0 -51.25,20.9688 -51.25,54.7813 V 591.715 c 0,33.769 19.78,54.726 51.25,54.726 31.48,0 51.31,-20.957 51.31,-54.726 V 67.2813" /><path
         id="path34"
         style="fill:#100f0d;fill-opacity:1;fill-rule:nonzero;stroke:none"
         d="m 3557.56,633.941 c -24.63,0 -38.75,-15.39 -38.75,-42.226 V 67.2813 C 3518.81,40.3906 3532.93,25 3557.56,25 c 24.67,0 38.81,15.3906 38.81,42.2813 V 591.715 c 0,26.836 -14.14,42.226 -38.81,42.226 z M 3557.56,0 c -38.71,0 -63.75,26.3984 -63.75,67.2813 V 591.715 c 0,40.84 25.04,67.226 63.75,67.226 38.79,0 63.81,-26.386 63.81,-67.226 V 67.2813 C 3621.37,26.3984 3596.35,0 3557.56,0" /><path
         id="path36"
         style="fill:#100f0d;fill-opacity:1;fill-rule:nonzero;stroke:none"
         d="m 3823.24,773.512 c 0,33.808 19.83,54.765 51.27,54.765 31.47,0 51.27,-20.957 51.27,-54.765 V 639.469 h 41.99 c 33.77,0 51.27,-16.309 51.27,-44.258 0,-28.008 -17.5,-44.316 -51.27,-44.316 h -41.99 V 67.2813 c 0,-33.8125 -19.8,-54.7813 -51.27,-54.7813 -31.44,0 -51.27,20.9688 -51.27,54.7813 V 550.895 h -41.93 c -33.79,0 -51.31,16.308 -51.31,44.316 0,27.949 17.52,44.258 51.31,44.258 h 41.93 v 134.043" /><path
         id="path38"
         style="fill:#100f0d;fill-opacity:1;fill-rule:nonzero;stroke:none"
         d="m 3781.31,626.969 c -38.81,0 -38.81,-23.906 -38.81,-31.758 0,-7.871 0,-31.816 38.81,-31.816 h 54.43 V 67.2813 C 3835.74,40.3906 3849.88,25 3874.51,25 c 24.65,0 38.77,15.3906 38.77,42.2813 V 563.395 h 54.49 c 38.77,0 38.77,23.945 38.77,31.816 0,7.852 0,31.758 -38.77,31.758 h -54.49 v 146.543 c 0,26.875 -14.12,42.265 -38.77,42.265 -24.63,0 -38.77,-15.39 -38.77,-42.265 V 626.969 Z M 3874.51,0 c -38.71,0 -63.77,26.3984 -63.77,67.2813 V 538.395 h -29.43 c -39.96,0 -63.81,21.25 -63.81,56.816 0,35.547 23.85,56.758 63.81,56.758 h 29.43 v 121.543 c 0,40.859 25.06,67.265 63.77,67.265 38.75,0 63.77,-26.406 63.77,-67.265 V 651.969 h 29.49 c 39.93,0 63.77,-21.211 63.77,-56.758 0,-35.566 -23.84,-56.816 -63.77,-56.816 h -29.49 V 67.2813 C 3938.28,26.3984 3913.26,0 3874.51,0" /><path
         id="path40"
         style="fill:#100f0d;fill-opacity:1;fill-rule:nonzero;stroke:none"
         d="M 321.992,206.359 C 223.164,254.41 164.16,335.5 164.16,423.352 c 0,143.011 157.012,259.378 350,259.378 192.988,0 350,-116.367 350,-259.378 0,-84.723 -55.742,-164.211 -149.14,-212.614 l -17.247,33.301 c 80.704,41.813 128.887,108.852 128.887,179.313 0,122.347 -140.195,221.878 -312.5,221.878 -172.305,0 -312.5,-99.531 -312.5,-221.878 0,-73.141 51.113,-141.641 136.719,-183.243 l -16.387,-33.75" /><path
         id="path42"
         style="fill:#ffffff;fill-opacity:1;fill-rule:nonzero;stroke:none"
         d="m 964.16,895.23 c 0,-162.226 -200.058,-293.75 -446.875,-293.75 -246.816,0 -446.8748,131.524 -446.8748,293.75 0,162.23 200.0588,293.75 446.8748,293.75 246.817,0 446.875,-131.52 446.875,-293.75" /><path
         id="path44"
         style="fill:#100f0d;fill-opacity:1;fill-rule:nonzero;stroke:none"
         d="m 517.285,1170.23 c -236.074,0 -428.1248,-123.36 -428.1248,-275 0,-151.64 192.0508,-275 428.1248,-275 236.074,0 428.125,123.36 428.125,275 0,151.64 -192.051,275 -428.125,275 z m 0,-587.5 c -256.758,0 -465.6248,140.196 -465.6248,312.5 0,172.31 208.8668,312.5 465.6248,312.5 256.758,0 465.625,-140.19 465.625,-312.5 0,-172.304 -208.867,-312.5 -465.625,-312.5" /><path
         id="path46"
         style="fill:#100f0d;fill-opacity:1;fill-rule:nonzero;stroke:none"
         d="m 878.75,1419.8 c -33.086,0 -60,-26.91 -60,-60 0,-33.09 26.914,-60 60,-60 33.086,0 60,26.91 60,60 0,33.09 -26.914,60 -60,60 z m 0,-157.5 c -53.77,0 -97.5,43.73 -97.5,97.5 0,53.77 43.73,97.5 97.5,97.5 53.75,0 97.5,-43.73 97.5,-97.5 0,-53.77 -43.75,-97.5 -97.5,-97.5" /><path
         id="path48"
         style="fill:#100f0d;fill-opacity:1;fill-rule:nonzero;stroke:none"
         d="M 61.5039,927.242 C 23.5742,948.316 0,988.316 0,1031.68 c 0,65.82 53.5547,119.37 119.375,119.37 31.875,0 61.855,-12.42 84.414,-34.96 l -26.523,-26.52 c -15.469,15.47 -36.036,23.98 -57.891,23.98 -45.1367,0 -81.875,-36.72 -81.875,-81.87 0,-29.75 16.1719,-57.192 42.207,-71.645 L 61.5039,927.242" /><path
         id="path50"
         style="fill:#100f0d;fill-opacity:1;fill-rule:nonzero;stroke:none"
         d="m 974.863,927.242 -18.222,32.793 c 26.035,14.453 42.207,41.895 42.207,71.645 0,45.15 -36.719,81.87 -81.875,81.87 -21.856,0 -42.422,-8.51 -57.891,-23.98 l -26.523,26.52 c 22.558,22.54 52.539,34.96 84.414,34.96 65.82,0 119.377,-53.55 119.377,-119.37 0,-43.364 -23.58,-83.364 -61.487,-104.438" /><path
         id="path52"
         style="fill:#ef381f;fill-opacity:1;fill-rule:nonzero;stroke:none"
         d="m 295.996,950.426 c 0,40.488 32.832,73.344 73.379,73.344 40.508,0 73.34,-32.856 73.34,-73.344 0,-40.528 -32.832,-73.36 -73.34,-73.36 -40.547,0 -73.379,32.832 -73.379,73.36" /><path
         id="path54"
         style="fill:#ef381f;fill-opacity:1;fill-rule:nonzero;stroke:none"
         d="m 602.246,950.426 c 0,40.488 32.832,73.344 73.379,73.344 40.508,0 73.34,-32.856 73.34,-73.344 0,-40.528 -32.832,-73.36 -73.34,-73.36 -40.547,0 -73.379,32.832 -73.379,73.36" /><path
         id="path56"
         style="fill:#100f0d;fill-opacity:1;fill-rule:nonzero;stroke:none"
         d="m 518.34,3.55078 c -208.067,0 -225,285.85922 -225,631.25022 h 37.5 c 0,-312.891 14.336,-593.7502 187.5,-593.7502 156.133,0 187.5,227.1872 187.5,593.7502 h 37.5 c 0,-319.41 -17.383,-631.25022 -225,-631.25022" /><path
         id="path58"
         style="fill:#100f0d;fill-opacity:1;fill-rule:nonzero;stroke:none"
         d="m 520.41,1178.55 c -2.07,0 -4.16,0.35 -6.23,1.08 -9.766,3.43 -14.883,14.14 -11.465,23.9 l 84.805,240.94 208.085,-49.75 c 10.079,-2.4 16.29,-12.54 13.887,-22.59 -2.422,-10.08 -12.558,-16.27 -22.597,-13.89 l -175.235,41.89 -73.555,-209.04 c -2.714,-7.71 -9.96,-12.54 -17.695,-12.54" /><path
         id="path60"
         style="fill:#100f0d;fill-opacity:1;fill-rule:nonzero;stroke:none"
         d="M 848.945,1.48047 H 181.777 L 180.84,19.25 c -0.117,2.6211 -2.852,63.9883 34.961,103.809 20.527,21.621 48.437,32.601 82.91,32.601 h 63.359 c 10.352,0 18.75,-8.398 18.75,-18.75 0,-10.351 -8.398,-18.75 -18.75,-18.75 h -63.359 c -24.121,0 -42.363,-6.84 -55.723,-20.9412 C 226.758,80.1484 221.152,55.5391 219.219,38.9805 H 810.957 C 808.848,56.168 802.891,81.7891 786.113,99.0586 773.652,111.93 757.148,118.16 735.684,118.16 H 672.52 c -10.352,0 -18.75,8.399 -18.75,18.75 0,10.352 8.398,18.75 18.75,18.75 h 63.164 c 31.796,0 57.871,-10.332 77.519,-30.648 C 851.387,85.4609 849.668,22.2813 849.551,19.6016 L 848.945,1.48047" /><path
         id="path62"
         style="fill:#100f0d;fill-opacity:1;fill-rule:nonzero;stroke:none"
         d="m 516.426,696.168 c -119.571,0 -167.403,54.297 -169.375,56.602 -6.738,7.871 -5.821,19.726 2.051,26.445 7.832,6.68 19.57,5.82 26.328,-1.934 1.074,-1.172 40.996,-43.613 140.996,-43.613 101.738,0 146.347,43.945 146.797,44.375 7.207,7.344 19.062,7.52 26.465,0.312 7.363,-7.187 7.636,-18.906 0.527,-26.347 -2.188,-2.285 -54.824,-55.84 -173.789,-55.84" /></g></g></svg>